<?xml version="1.0" standalone="no"?>
<!DOCTYPE svg PUBLIC "-//W3C//DTD SVG 20010904//EN"
 "http://www.w3.org/TR/2001/REC-SVG-20010904/DTD/svg10.dtd">
<svg version="1.0" xmlns="http://www.w3.org/2000/svg"
 width="1600.000000pt" height="1600.000000pt" viewBox="0 0 1600.000000 1600.000000"
 preserveAspectRatio="xMidYMid meet">

<g transform="translate(0.000000,1600.000000) scale(0.100000,-0.100000)"
fill="#000000" stroke="none">
<path d="M6391 14473 c13 -16 69 -75 124 -133 244 -256 341 -377 483 -599 177
-279 290 -551 338 -814 22 -117 25 -409 5 -517 -21 -119 -76 -272 -137 -386
-31 -58 -53 -108 -49 -112 4 -4 109 -10 233 -14 438 -13 810 -57 1407 -169
385 -71 917 -220 1329 -371 104 -38 191 -67 193 -64 7 6 -109 225 -195 371
-185 313 -467 694 -722 979 -120 134 -379 393 -505 507 -100 89 -382 313 -506
401 -400 285 -921 565 -1376 739 -133 51 -616 209 -638 209 -5 0 2 -12 16 -27z"/>
<path d="M6980 11559 c-1027 -41 -1976 -299 -2883 -785 -534 -285 -898 -553
-1346 -990 -214 -208 -347 -353 -334 -364 4 -5 325 -131 713 -280 388 -150
1119 -431 1625 -626 1208 -466 1341 -517 1660 -644 889 -355 1373 -586 1741
-831 367 -245 641 -526 787 -808 115 -220 144 -370 134 -684 l-6 -178 48 40
c152 128 414 433 524 611 76 124 146 279 173 385 35 136 37 303 6 419 -78 283
-296 544 -692 827 -699 500 -1287 776 -3625 1705 -679 269 -775 316 -775 378
0 87 406 348 783 503 366 149 829 266 1289 323 338 42 1064 50 1413 14 585
-59 1155 -173 1755 -349 63 -19 142 -42 175 -51 57 -17 58 -18 30 -25 -16 -3
-58 -7 -92 -8 -33 0 -113 -10 -178 -21 -442 -76 -862 -304 -1092 -595 -185
-234 -275 -492 -272 -788 2 -180 6 -182 68 -25 93 241 205 412 387 595 115
115 257 219 395 288 86 44 303 135 320 135 8 0 -33 -31 -91 -70 -350 -232
-601 -597 -655 -950 -16 -102 -21 -293 -10 -354 7 -36 8 -35 36 51 36 109 141
321 211 428 57 87 256 298 354 376 34 26 108 76 165 110 138 82 399 200 399
180 0 -3 -44 -36 -98 -73 -53 -37 -127 -93 -165 -124 -80 -67 -223 -231 -283
-324 -106 -164 -181 -360 -208 -543 -16 -105 -22 -308 -9 -320 3 -4 28 45 54
109 167 403 436 715 769 892 104 55 278 128 286 119 3 -3 -30 -29 -73 -57 -99
-66 -307 -276 -392 -395 -146 -207 -245 -476 -270 -739 -10 -102 -6 -216 8
-216 4 0 38 32 76 71 269 273 719 495 1285 633 216 52 304 65 535 77 271 15
478 6 646 -27 152 -29 179 -38 179 -59 0 -24 -255 -280 -403 -403 -76 -63
-136 -116 -134 -118 16 -16 390 115 774 272 538 220 896 399 1370 682 163 97
210 130 200 138 -25 24 -410 276 -672 441 -1111 698 -1986 1120 -3070 1478
-160 53 -677 203 -842 244 -437 110 -970 207 -1403 255 -245 28 -362 36 -660
46 -318 11 -360 11 -640 -1z m4342 -1838 c282 -80 590 -175 953 -294 l250 -82
-225 -7 c-262 -8 -376 -18 -669 -59 -118 -16 -222 -27 -232 -24 -35 11 -110
108 -150 194 -22 47 -50 105 -61 128 -15 31 -52 67 -149 144 -71 56 -132 105
-134 109 -6 10 74 -11 417 -109z"/>
<path d="M2746 8258 c15 -50 127 -305 180 -411 140 -279 439 -734 680 -1033
306 -380 757 -851 1119 -1169 387 -339 760 -614 1535 -1132 861 -576 1048
-730 1366 -1123 319 -394 521 -845 634 -1415 12 -60 25 -116 30 -124 5 -9 18
13 40 65 274 660 617 1210 1084 1744 317 361 591 627 1236 1200 1117 993 1801
1748 2240 2474 87 144 145 254 138 261 -3 3 -68 -46 -146 -108 -529 -425
-1152 -789 -1990 -1161 -146 -65 -580 -239 -648 -260 -12 -4 -28 -21 -35 -39
-22 -52 -176 -303 -262 -427 -391 -559 -1068 -1342 -1503 -1737 -125 -113
-161 -140 -173 -127 -5 5 -32 87 -61 183 -88 295 -177 522 -308 782 -310 613
-766 1188 -1247 1571 -91 72 -227 169 -231 165 -2 -2 43 -102 100 -223 176
-372 233 -538 262 -764 18 -146 19 -230 1 -230 -39 0 -502 200 -772 333 -1036
512 -2057 1280 -2746 2067 -106 121 -317 386 -419 528 -93 128 -119 155 -104
110z"/>
</g>
</svg>
